<svg xmlns="http://www.w3.org/2000/svg" fill="none" viewBox="0 0 24 24"><g clip-path="url(#agnostic_svg__a)"><path fill="url(#agnostic_svg__b)" fill-rule="evenodd" d="M11.646.644a.499.499 0 0 1 .708 0l3 3a.5.5 0 0 1-.708.708L12.5 2.205v5.322a4.502 4.502 0 0 1 3.972 3.971h5.32l-2.146-2.146a.5.5 0 0 1 .708-.708l3 3a.499.499 0 0 1 .146.354V12.024a.496.496 0 0 1-.146.328l-3 3a.5.5 0 0 1-.708-.707l2.147-2.147h-5.32a4.502 4.502 0 0 1-3.973 3.975v5.318l2.146-2.146a.5.5 0 0 1 .708.707l-3 3a.5.5 0 0 1-.354.146H11.974a.5.5 0 0 1-.328-.146l-3-3a.5.5 0 1 1 .708-.707L11.5 21.79v-5.319a4.502 4.502 0 0 1-3.973-3.974h-5.32l2.147 2.147a.5.5 0 1 1-.708.707l-3-3a.498.498 0 0 1 0-.707l3-3a.5.5 0 1 1 .708.707l-2.147 2.146h5.32a4.502 4.502 0 0 1 3.973-3.97V2.204L9.354 4.352a.5.5 0 1 1-.708-.708l3-3Zm.396 14.856a.481.481 0 0 0-.084 0 3.5 3.5 0 1 1 .084 0Z" clip-rule="evenodd"/></g><defs><linearGradient id="agnostic_svg__b" x1="12" x2="12" y1=".498" y2="23.498" gradientUnits="userSpaceOnUse"><stop stop-color="#C59FDF"/><stop offset="1" stop-color="#AD79D2"/></linearGradient><clipPath id="agnostic_svg__a"><path fill="#fff" d="M0 0h24v24H0z"/></clipPath></defs></svg>